<?xml version="1.0" encoding="UTF-8" standalone="no"?>
<!-- Created with Inkscape (http://www.inkscape.org/) -->

<svg
   xmlns:dc="http://purl.org/dc/elements/1.1/"
   xmlns:cc="http://creativecommons.org/ns#"
   xmlns:rdf="http://www.w3.org/1999/02/22-rdf-syntax-ns#"
   xmlns:svg="http://www.w3.org/2000/svg"
   xmlns="http://www.w3.org/2000/svg"
   xmlns:sodipodi="http://sodipodi.sourceforge.net/DTD/sodipodi-0.dtd"
   xmlns:inkscape="http://www.inkscape.org/namespaces/inkscape"
   width="154.77518mm"
   height="54.131611mm"
   viewBox="0 0 154.77518 54.131611"
   version="1.1"
   id="svg8"
   inkscape:version="0.92.4 (5da689c313, 2019-01-14)"
   sodipodi:docname="Pollen_logo.svg">
  <defs
     id="defs2" />
  <sodipodi:namedview
     id="base"
     pagecolor="#ffffff"
     bordercolor="#666666"
     borderopacity="1.0"
     inkscape:pageopacity="0.0"
     inkscape:pageshadow="2"
     inkscape:zoom="0.98994949"
     inkscape:cx="255.67359"
     inkscape:cy="51.888988"
     inkscape:document-units="mm"
     inkscape:current-layer="layer1"
     showgrid="false"
     fit-margin-top="0"
     fit-margin-left="0"
     fit-margin-right="0"
     fit-margin-bottom="0"
     inkscape:window-width="1920"
     inkscape:window-height="1013"
     inkscape:window-x="-9"
     inkscape:window-y="-9"
     inkscape:window-maximized="1" />
  <metadata
     id="metadata5">
    <rdf:RDF>
      <cc:Work
         rdf:about="">
        <dc:format>image/svg+xml</dc:format>
        <dc:type
           rdf:resource="http://purl.org/dc/dcmitype/StillImage" />
        <dc:title></dc:title>
      </cc:Work>
    </rdf:RDF>
  </metadata>
  <g
     inkscape:label="Layer 1"
     inkscape:groupmode="layer"
     id="layer1"
     transform="translate(-24.665977,-114.208)">
    <g
       style="fill:none;stroke-width:0.21128146"
       id="g4556"
       transform="matrix(1.2522789,0,0,1.2522789,24.336397,113.46175)">
      <path
         id="path4518"
         d="m 60.4263,12.1551 c 2.5421,0 3.7526,1.3245 3.7526,3.6122 v 12.7633 c 0,2.2878 -1.2105,3.6122 -3.7526,3.6122 h -1.4526 c -1.3316,0 -2.179,-0.4816 -2.5421,-1.5653 V 37.802 H 52.679 V 12.1551 h 3.7526 v 1.5653 c 0.3631,-1.0837 1.3316,-1.5653 2.5421,-1.5653 z m 0.1211,4.2143 c 0,-0.9633 -0.2421,-1.2041 -1.2106,-1.2041 h -1.4526 c -0.9684,0 -1.3316,0.3612 -1.3316,1.4449 v 11.198 c 0,1.0836 0.3632,1.4448 1.3316,1.4448 h 1.4526 c 0.9685,0 1.2106,-0.2408 1.2106,-1.204 z"
         inkscape:connector-curvature="0"
         style="fill:#fb2a52;fill-opacity:1;stroke-width:0.21128146" />
      <path
         id="path4520"
         d="m 75.5579,12.1551 c 2.6632,0 3.8737,1.3245 3.8737,3.6122 v 12.7633 c 0,2.2878 -1.2105,3.6122 -3.8737,3.6122 H 71.2 c -2.6631,0 -3.7526,-1.3244 -3.7526,-3.6122 V 15.7673 c 0,-2.4081 1.2105,-3.6122 3.7526,-3.6122 z M 75.8,16.249 c 0,-0.9633 -0.2421,-1.2041 -1.2105,-1.2041 h -2.3 c -0.9684,0 -1.2105,0.2408 -1.2105,1.2041 v 11.6796 c 0,0.9632 0.2421,1.204 1.2105,1.204 h 2.3 c 0.9684,0 1.2105,-0.2408 1.2105,-1.204 z"
         inkscape:connector-curvature="0"
         style="fill:#fb2a52;fill-opacity:1;stroke-width:0.21128146" />
      <path
         id="path4522"
         d="M 82.821,32.1428 V 4.68979 h 3.7527 V 32.1428 Z"
         inkscape:connector-curvature="0"
         style="fill:#fb2a52;fill-opacity:1;stroke-width:0.21128146" />
      <path
         id="path4524"
         d="M 90.2053,32.1428 V 4.68979 h 3.7526 V 32.1428 Z"
         inkscape:connector-curvature="0"
         style="fill:#fb2a52;fill-opacity:1;stroke-width:0.21128146" />
      <path
         id="path4526"
         d="m 105.337,12.1551 c 2.663,0 3.874,1.3245 3.874,3.6122 v 7.4653 H 101.1 v 4.8164 c 0,0.9632 0.242,1.204 1.211,1.204 h 1.936 c 0.969,0 1.211,-0.2408 1.211,-1.204 v -1.6857 h 3.631 v 2.1673 c 0,2.2878 -1.21,3.6122 -3.873,3.6122 h -3.995 c -2.6631,0 -3.8736,-1.3244 -3.8736,-3.6122 V 15.7673 c 0,-2.4081 1.2105,-3.6122 3.8736,-3.6122 z m 0.242,8.4286 V 16.249 c 0,-0.9633 -0.242,-1.2041 -1.211,-1.2041 h -2.057 c -0.969,0 -1.211,0.2408 -1.211,1.2041 v 4.3347 z"
         inkscape:connector-curvature="0"
         style="fill:#fb2a52;fill-opacity:1;stroke-width:0.21128146" />
      <path
         id="path4528"
         d="m 120.105,12.1551 c 2.542,0 3.753,1.3245 3.753,3.6122 v 16.3755 h -3.753 V 16.3694 c 0,-0.9633 -0.242,-1.2041 -1.21,-1.2041 h -1.453 c -0.968,0 -1.331,0.3612 -1.331,1.4449 v 15.5326 h -3.753 V 12.1551 h 3.753 v 1.5653 c 0.363,-1.0837 1.331,-1.5653 2.542,-1.5653 z"
         inkscape:connector-curvature="0"
         style="fill:#fb2a52;fill-opacity:1;stroke-width:0.21128146" />
      <path
         id="path4530"
         d="M 22.4158,43.8224 4.50003,35.1531 0.263184,15.8878 12.6106,0.595917 H 32.1 L 44.5684,15.8878 40.3316,35.1531 Z M 6.19476,33.7082 22.4158,41.6551 38.6369,33.7082 42.5106,16.3694 31.2527,2.64286 H 13.579 L 2.32108,16.3694 Z"
         inkscape:connector-curvature="0"
         style="fill:#fb2a52;fill-opacity:1;stroke-width:0.21128146" />
      <path
         id="path4532"
         d="M 22.4158,15.2857 12.3685,2.16123 13.9422,0.957153 22.4158,11.9143 30.8895,1.07756 32.4632,2.28164 Z"
         inkscape:connector-curvature="0"
         style="fill:#fb2a52;fill-opacity:1;stroke-width:0.21128146" />
      <path
         id="path4534"
         d="M 6.07368,35.0327 4.5,33.7082 22.4158,12.0347 l 17.6737,21.6735 -1.5737,1.3245 -16.1,-19.8674 z"
         inkscape:connector-curvature="0"
         style="fill:#fb2a52;fill-opacity:1;stroke-width:0.21128146" />
      <path
         id="path4536"
         d="M 22.4158,43.3408 0.50531,16.4898 1.95794,15.4061 22.4158,40.451 42.8737,15.4061 l 1.3316,1.0837 z"
         inkscape:connector-curvature="0"
         style="fill:#fb2a52;fill-opacity:1;stroke-width:0.21128146" />
    </g>
  </g>
</svg>
